<svg width="21" height="24" viewBox="0 0 21 24" fill="none" xmlns="http://www.w3.org/2000/svg">
<path fill-rule="evenodd" clip-rule="evenodd" d="M0 4C0 3.44772 0.447715 3 1 3H20C20.5523 3 21 3.44772 21 4C21 4.55228 20.5523 5 20 5H1C0.447715 5 0 4.55228 0 4ZM0 12C0 11.4477 0.447715 11 1 11H20C20.5523 11 21 11.4477 21 12C21 12.5523 20.5523 13 20 13H1C0.447715 13 0 12.5523 0 12ZM1 19C0.447715 19 0 19.4477 0 20C0 20.5523 0.447715 21 1 21H20C20.5523 21 21 20.5523 21 20C21 19.4477 20.5523 19 20 19H1Z" fill="black"/>
</svg>
