<svg width="27" height="24" viewBox="0 0 27 24" fill="none" xmlns="http://www.w3.org/2000/svg">
<path fill-rule="evenodd" clip-rule="evenodd" d="M17.3474 9.67372C17.3474 13.9118 13.9118 17.3474 9.67372 17.3474C5.43564 17.3474 2 13.9118 2 9.67372C2 5.43564 5.43564 2 9.67372 2C13.9118 2 17.3474 5.43564 17.3474 9.67372ZM16.7131 16.3091C14.9492 18.1798 12.4478 19.3474 9.67372 19.3474C4.33107 19.3474 0 15.0164 0 9.67372C0 4.33107 4.33107 0 9.67372 0C15.0164 0 19.3474 4.33107 19.3474 9.67372C19.3474 11.5074 18.8373 13.2219 17.9511 14.6831C17.9646 14.6943 17.9779 14.7058 17.991 14.7178L25.7313 21.8105C26.146 22.1905 26.1741 22.8346 25.7941 23.2492C25.4142 23.6639 24.7701 23.692 24.3554 23.3121L16.7131 16.3091Z" fill="#888888"/>
</svg>
