<svg viewBox="0 0 51 40" fill="none" xmlns="http://www.w3.org/2000/svg">
<path d="M29.853 14.7594C29.2063 14.9407 28.5242 15.0376 27.8196 15.0376C27.0149 15.0376 26.2397 14.9112 25.5128 14.6771L20.2214 23.9032C21.2044 24.9739 21.8045 26.4018 21.8045 27.9699C21.8045 31.2919 19.1115 33.985 15.7895 33.985C12.4674 33.985 9.77441 31.2919 9.77441 27.9699C9.77441 26.27 10.4796 24.7348 11.6134 23.6408L6.89329 15.5322C6.38003 15.6992 5.83214 15.7895 5.26316 15.7895C2.3564 15.7895 0 13.4331 0 10.5263C0 7.61955 2.3564 5.26315 5.26316 5.26315C8.16992 5.26315 10.5263 7.61955 10.5263 10.5263C10.5263 11.9736 9.94215 13.2844 8.99675 14.2359L13.7058 22.3256C14.355 22.0858 15.0569 21.9549 15.7895 21.9549C16.4331 21.9549 17.053 22.056 17.6344 22.2431L22.8454 13.1572C21.2849 11.7795 20.3008 9.76406 20.3008 7.5188C20.3008 3.36628 23.6671 0 27.8196 0C31.9721 0 35.3384 3.36628 35.3384 7.5188C35.3384 9.63418 34.4648 11.5455 33.0587 12.9117L38.5646 22.3941C39.4429 22.109 40.3801 21.9549 41.3534 21.9549C46.3364 21.9549 50.3759 25.9944 50.3759 30.9775C50.3759 35.9605 46.3364 40 41.3534 40C36.3703 40 32.3308 35.9605 32.3308 30.9775C32.3308 28.2968 33.4999 25.8891 35.356 24.2366L29.853 14.7594Z" fill="#0A40BB"/>
</svg>
