<svg viewBox="0 0 15 24" fill="currentColor" xmlns="http://www.w3.org/2000/svg">
<g clip-path="url(#clip0_174_2)">
<path fill-rule="evenodd" clip-rule="evenodd" d="M1.04155 5.1787C0.803284 4.94043 0.416972 4.94043 0.178702 5.1787C-0.0595675 5.41697 -0.0595674 5.80328 0.178703 6.04155L6.63719 12.5L0.178784 18.9585C-0.0594859 19.1967 -0.0594859 19.583 0.178784 19.8213C0.417054 20.0596 0.803366 20.0596 1.04164 19.8213L7.50004 13.3629L13.9584 19.8213C14.1967 20.0596 14.583 20.0596 14.8213 19.8213C15.0596 19.583 15.0596 19.1967 14.8213 18.9584L8.3629 12.5L14.8214 6.04156C15.0596 5.80329 15.0596 5.41698 14.8214 5.17871C14.5831 4.94044 14.1968 4.94044 13.9585 5.17871L7.50004 11.6372L1.04155 5.1787Z" fill="currentColor"/>
</g>
<defs>
<clipPath id="clip0_174_2">
<rect width="15" height="24" fill="currentColor"/>
</clipPath>
</defs>
</svg>
